<?xml version="1.0" standalone="no"?>
<!DOCTYPE svg PUBLIC "-//W3C//DTD SVG 20010904//EN"
 "http://www.w3.org/TR/2001/REC-SVG-20010904/DTD/svg10.dtd">
<svg version="1.0" xmlns="http://www.w3.org/2000/svg"
 width="483.000000pt" height="483.000000pt" viewBox="0 0 483.000000 483.000000"
 preserveAspectRatio="xMidYMid meet">
<metadata>
Created by potrace 1.14, written by Peter Selinger 2001-2017
</metadata>
<g transform="translate(0.000000,483.000000) scale(0.100000,-0.100000)"
fill="#000000" stroke="none">
<path d="M2150 4813 c-425 -55 -787 -195 -1125 -437 -38 -28 -75 -55 -81 -61
-7 -5 -31 -26 -55 -45 -24 -19 -86 -75 -137 -125 -395 -380 -653 -900 -716
-1445 -31 -263 -20 -540 30 -775 9 -38 17 -79 19 -89 13 -61 63 -216 102 -316
123 -313 296 -574 543 -820 135 -135 136 -136 255 -226 169 -127 337 -222 542
-308 140 -59 365 -123 498 -142 17 -2 57 -8 90 -14 66 -10 625 -7 665 3 14 4
45 10 70 13 74 10 307 72 409 110 122 45 355 158 446 217 81 53 161 108 178
122 7 6 45 36 86 69 93 74 254 237 338 341 214 264 379 592 462 915 58 227 63
282 58 645 -4 349 -5 351 -43 515 -102 435 -323 835 -635 1150 -205 207 -384
336 -644 465 -198 99 -393 167 -582 205 -27 5 -59 12 -73 15 -14 3 -47 8 -75
11 -27 3 -61 8 -75 10 -66 12 -452 10 -550 -3z"/>
</g>
</svg>
