<?xml version="1.0" standalone="no"?>
<!DOCTYPE svg PUBLIC "-//W3C//DTD SVG 20010904//EN"
 "http://www.w3.org/TR/2001/REC-SVG-20010904/DTD/svg10.dtd">
<svg version="1.0" xmlns="http://www.w3.org/2000/svg"
 width="512.000000pt" height="512.000000pt" viewBox="0 0 512.000000 512.000000"
 preserveAspectRatio="xMidYMid meet">
<metadata>
Created by potrace 1.14, written by Peter Selinger 2001-2017
</metadata>
<g transform="translate(0.000000,512.000000) scale(0.100000,-0.100000)"
fill="#000000" stroke="none">
<path d="M2408 5115 c-2 -1 -30 -6 -63 -10 -71 -8 -206 -37 -290 -63 -291 -90
-581 -285 -780 -527 -28 -33 -52 -62 -55 -65 -13 -13 -102 -152 -133 -210 -60
-109 -130 -290 -153 -395 -45 -201 -57 -371 -41 -555 7 -77 10 -101 27 -183
14 -69 13 -75 -19 -82 -39 -8 -113 -62 -150 -109 -41 -51 -66 -135 -63 -211 4
-110 78 -223 178 -270 19 -9 82 -28 140 -43 l105 -27 -5 -75 c-8 -102 -11
-117 -55 -280 -45 -172 -64 -303 -64 -460 -1 -185 13 -284 75 -520 36 -140 41
-169 43 -300 3 -98 -1 -169 -11 -220 -8 -41 -16 -87 -19 -102 -3 -15 -10 -39
-15 -53 -18 -47 -12 -136 14 -190 61 -132 206 -195 342 -148 56 19 134 92 157
148 24 58 56 192 72 303 13 90 14 383 1 452 -2 14 -9 54 -16 90 -6 36 -24 112
-40 170 -58 217 -69 379 -36 570 2 14 16 68 30 120 45 168 58 240 71 389 3 35
6 66 8 67 1 1 25 5 52 8 101 12 141 18 178 26 37 8 39 6 39 -30 0 -82 -20
-189 -65 -360 -14 -52 -28 -113 -31 -135 -12 -90 -18 -130 -21 -135 -8 -13 26
-71 47 -79 21 -8 23 -15 24 -90 1 -61 -2 -81 -13 -81 -7 0 -22 -9 -34 -21 -19
-19 -20 -29 -15 -88 7 -87 17 -139 61 -305 61 -236 65 -431 14 -623 -32 -118
-30 -196 6 -262 56 -103 142 -151 260 -147 111 5 205 77 243 189 47 139 76
333 76 512 -1 129 -10 209 -48 401 -2 12 -13 52 -24 90 -39 134 -46 187 -46
349 1 164 4 188 57 385 14 52 28 111 31 130 3 19 8 46 11 60 9 46 18 165 19
262 l0 96 76 -1 75 -2 1 -100 c1 -92 4 -137 20 -265 4 -25 19 -97 36 -160 39
-154 37 -146 53 -224 8 -45 12 -120 10 -215 -3 -133 -6 -160 -45 -311 -45
-179 -58 -241 -67 -340 -13 -143 -5 -353 17 -455 5 -22 11 -52 14 -67 29 -161
81 -256 168 -303 72 -39 180 -42 248 -7 61 32 97 68 126 124 34 67 36 128 8
244 -57 229 -51 413 20 674 12 43 36 150 41 180 21 141 24 193 20 330 -4 151
-6 176 -20 250 -4 19 -9 46 -12 60 -2 14 -19 84 -38 155 -18 72 -36 162 -40
200 -4 39 -8 82 -9 96 l-3 26 71 -13 c39 -6 100 -15 136 -18 35 -4 65 -8 67
-9 1 -2 5 -36 8 -77 8 -110 22 -187 65 -355 71 -280 72 -456 4 -695 -52 -181
-68 -298 -69 -490 0 -163 7 -243 31 -362 3 -15 5 -30 5 -33 0 -17 40 -137 57
-172 81 -158 308 -188 436 -57 72 74 90 160 61 285 -51 217 -57 365 -21 564 2
11 18 72 35 135 17 63 33 133 36 155 4 22 8 47 10 55 17 60 23 276 12 410 -12
132 -15 152 -58 318 -42 163 -44 175 -55 287 l-6 70 114 29 c84 21 129 38 169
65 192 128 189 408 -6 534 -22 14 -52 29 -67 32 -33 8 -32 7 -13 106 66 347
18 716 -135 1034 -65 133 -83 164 -163 272 -71 97 -98 115 -141 95 -21 -9 -29
-4 -76 43 -29 29 -50 57 -47 62 3 5 8 22 11 36 6 35 -28 70 -149 153 -209 143
-425 228 -695 275 -57 10 -393 22 -402 14z"/>
</g>
</svg>
